<svg width="58" height="57" viewBox="0 0 58 57" fill="none" xmlns="http://www.w3.org/2000/svg">
<g clip-path="url(#clip0_93_331)">
<path d="M39 20C35.9624 20 33.5 22.4624 33.5 25.5C33.5 28.5376 35.9624 31 39 31C42.0376 31 44.5 28.5376 44.5 25.5C44.5 22.4624 42.0376 20 39 20Z" fill="#F49425"/>
<path d="M39 19C42.584 19 45.5 21.916 45.5 25.5C45.5 29.084 42.584 32 39 32C35.416 32 32.5 29.084 32.5 25.5C32.5 21.916 35.416 19 39 19ZM39 30C41.481 30 43.5 27.981 43.5 25.5C43.5 23.019 41.481 21 39 21C36.519 21 34.5 23.019 34.5 25.5C34.5 27.981 36.519 30 39 30Z" fill="#F49425"/>
<path d="M22 20C18.9624 20 16.5 22.4624 16.5 25.5C16.5 28.5376 18.9624 31 22 31C25.0376 31 27.5 28.5376 27.5 25.5C27.5 22.4624 25.0376 20 22 20Z" fill="#F49425"/>
<path d="M22 19C25.584 19 28.5 21.916 28.5 25.5C28.5 29.084 25.584 32 22 32C18.416 32 15.5 29.084 15.5 25.5C15.5 21.916 18.416 19 22 19ZM22 30C24.481 30 26.5 27.981 26.5 25.5C26.5 23.019 24.481 21 22 21C19.519 21 17.5 23.019 17.5 25.5C17.5 27.981 19.519 30 22 30Z" fill="#F49425"/>
<path d="M44.5 25C45.053 25 45.5 25.447 45.5 26C45.5 33.72 39.22 40 31.5 40C30.947 40 30.5 39.553 30.5 39C30.5 38.447 30.947 38 31.5 38C38.117 38 43.5 32.617 43.5 26C43.5 25.447 43.947 25 44.5 25Z" fill="#F49425"/>
<path d="M27.5 25C28.053 25 28.5 25.447 28.5 26C28.5 33.72 22.22 40 14.5 40C13.947 40 13.5 39.553 13.5 39C13.5 38.447 13.947 38 14.5 38C21.117 38 26.5 32.617 26.5 26C26.5 25.447 26.947 25 27.5 25Z" fill="#F49425"/>
</g>
<defs>
<clipPath id="clip0_93_331">
<rect width="57" height="57" fill="white" transform="matrix(-1 0 0 -1 57.5 57)"/>
</clipPath>
</defs>
</svg>
