<svg width="341" height="158" viewBox="0 0 341 158" fill="none" xmlns="http://www.w3.org/2000/svg">
    <rect width="341" height="158" rx="24" fill="#D43E47"/>
    <mask id="mask0" mask-type="alpha" maskUnits="userSpaceOnUse" x="0" y="0" width="341" height="158">
        <rect width="341" height="158" rx="10" fill="white"/>
    </mask>
    <g mask="url(#mask0)">
        <g opacity="0.05">
            <mask id="mask1" mask-type="alpha" maskUnits="userSpaceOnUse" x="-17" y="-248" width="375" height="812">
                <rect x="-17" y="-248" width="375" height="812" fill="white"/>
            </mask>
            <g mask="url(#mask1)">
                <path d="M50 78C94.1828 78 130 113.817 130 158H50V78Z" fill="white"/>
                <path d="M130 78C174.183 78 210 113.817 210 158H130V78Z" fill="url(#paint0_linear)" fill-opacity="0.5"/>
                <path d="M290 78C334.183 78 370 113.817 370 158H290V78Z" fill="url(#paint1_linear)" fill-opacity="0.5"/>
                <path d="M290 -2C334.183 -2 370 33.8172 370 78H290V-2Z" fill="url(#paint2_linear)" fill-opacity="0.5"/>
                <path d="M-30 -2C14.1828 -2 50 33.8172 50 78H-30V-2Z" fill="url(#paint3_linear)" fill-opacity="0.5"/>
                <path d="M290 78C245.817 78 210 42.1828 210 -2H290V78Z" fill="url(#paint4_linear)" fill-opacity="0.5"/>
                <path d="M50 78C94.1828 78 130 42.1828 130 -2H50V78Z" fill="white"/>
                <path d="M210 78C165.817 78 130 42.1828 130 -2H210V78Z" fill="white"/>
                <path d="M370 -2C325.817 -2 290 33.8172 290 78H370V-2Z" fill="url(#paint5_linear)"/>
                <path d="M50 -2C5.81722 -2 -30 33.8172 -30 78H50V-2Z" fill="url(#paint6_linear)"/>
                <path d="M290 78C245.817 78 210 113.817 210 158H290V78Z" fill="white"/>
                <path d="M50 78C5.81722 78 -30 113.817 -30 158H50V78Z" fill="url(#paint7_linear)" fill-opacity="0.5"/>
            </g>
        </g>
    </g>
    <defs>
        <linearGradient id="paint0_linear" x1="170" y1="78" x2="170" y2="158" gradientUnits="userSpaceOnUse">
            <stop stop-color="#6F6F6F"/>
            <stop offset="1" stop-color="#6F6F6F" stop-opacity="0"/>
        </linearGradient>
        <linearGradient id="paint1_linear" x1="330" y1="78" x2="330" y2="158" gradientUnits="userSpaceOnUse">
            <stop stop-color="#6F6F6F"/>
            <stop offset="1" stop-color="#6F6F6F" stop-opacity="0"/>
        </linearGradient>
        <linearGradient id="paint2_linear" x1="330" y1="-2" x2="330" y2="78" gradientUnits="userSpaceOnUse">
            <stop stop-color="#6F6F6F"/>
            <stop offset="1" stop-color="#6F6F6F" stop-opacity="0"/>
        </linearGradient>
        <linearGradient id="paint3_linear" x1="10" y1="-2" x2="10" y2="78" gradientUnits="userSpaceOnUse">
            <stop stop-color="#6F6F6F"/>
            <stop offset="1" stop-color="#6F6F6F" stop-opacity="0"/>
        </linearGradient>
        <linearGradient id="paint4_linear" x1="250" y1="78" x2="250" y2="-2" gradientUnits="userSpaceOnUse">
            <stop stop-color="#6F6F6F"/>
            <stop offset="1" stop-color="#6F6F6F" stop-opacity="0"/>
        </linearGradient>
        <linearGradient id="paint5_linear" x1="330" y1="-2" x2="330" y2="78" gradientUnits="userSpaceOnUse">
            <stop stop-color="white"/>
            <stop offset="1" stop-color="white" stop-opacity="0.9"/>
        </linearGradient>
        <linearGradient id="paint6_linear" x1="10" y1="-2" x2="10" y2="78" gradientUnits="userSpaceOnUse">
            <stop stop-color="white"/>
            <stop offset="1" stop-color="white" stop-opacity="0.9"/>
        </linearGradient>
        <linearGradient id="paint7_linear" x1="10" y1="78" x2="10" y2="158" gradientUnits="userSpaceOnUse">
            <stop stop-color="#6F6F6F"/>
            <stop offset="1" stop-color="#6F6F6F" stop-opacity="0"/>
        </linearGradient>
    </defs>
</svg>
